<svg width="40px" height="37px" viewBox="0 0 40 37" version="1.1" xmlns="http://www.w3.org/2000/svg" xmlns:xlink="http://www.w3.org/1999/xlink">
    <g id="Web-Design" stroke="none" stroke-width="1" fill="none" fill-rule="evenodd">
        <g id="Your-Details" transform="translate(-608.000000, -260.000000)" fill-rule="nonzero">
            <g id="Mobile-Ticket" transform="translate(165.000000, 259.000000)">
                <g id="cancellation" transform="translate(443.000000, 1.000000)">
                    <path d="M39.7988982,16.7480012 C39.4020573,15.4694813 38.1915464,14.6158346 36.8533054,14.6694618 L36.5678627,14.6811622 C35.730548,14.7152886 34.9429602,15.0604524 34.3530616,15.650351 L29.9402789,20.0168194 C29.835706,19.8571568 29.7157761,19.7052945 29.5792706,19.56367 C28.9991225,18.9608522 28.1864275,18.6154446 27.349844,18.6154446 L21.1254388,18.6154446 C19.9510043,18.6154446 18.805821,18.4630948 17.7210901,18.1630265 C14.8959146,17.3810452 12.2001755,17.9455928 9.92516574,19.7954856 C8.96548362,20.576248 8.27564356,21.4281884 7.85247663,22.0302749 C7.37324493,21.6970554 6.80309086,21.5222796 6.21172973,21.5322738 C5.461681,21.5451931 4.76209048,21.8494052 4.24215095,22.3898206 L0.218896225,26.5661564 C-0.0782468643,26.8745124 -0.0721528861,27.3647133 0.233034321,27.6657566 L3.46845747,30.8570593 C3.7758385,31.1600527 4.27140212,31.1568837 4.574883,30.849259 C4.87787638,30.5416342 4.87470752,30.0465581 4.56708268,29.7430772 L1.88206902,27.0948713 L5.36880849,23.475039 C5.59818646,23.2368857 5.90703002,23.1023304 6.23781204,23.0969676 C6.57176287,23.0908736 6.88158153,23.2151911 7.1192473,23.4455441 L13.3402399,29.482498 C13.5774181,29.712851 13.7107547,30.0214509 13.7153861,30.3519891 C13.7200175,30.682771 13.5954563,30.9950273 13.3646159,31.2319618 L9.9383288,34.7474649 L9.05664973,33.9077126 C8.74366228,33.6095944 8.24858621,33.6217823 7.95046802,33.9347699 C7.65283738,34.2477574 7.66502534,34.7428334 7.97801285,35.0404641 L9.41936424,36.4135628 C9.57098284,36.5576248 9.7650156,36.6292902 9.95880462,36.6292902 C10.1625878,36.6292902 10.3658834,36.5500683 10.5192082,36.393087 L14.4851794,32.3237617 C15.0080441,31.7874902 15.2900741,31.0793682 15.2798362,30.3305382 C15.274961,29.9880558 15.2086583,29.6558112 15.087266,29.3462364 L16.4842531,29.1836486 C17.1324103,29.1083269 17.7917804,29.0698128 18.4443252,29.0698128 L27.9151229,29.0698128 C28.0601599,29.0698128 28.2069033,29.0637188 28.3514528,29.0515308 L29.2589704,28.9759653 C30.1789197,28.8996685 31.0654739,28.5803432 31.8233229,28.0533347 C32.1953003,27.7944618 32.5326638,27.4882995 32.8261505,27.142892 L39.2080246,19.6346041 C39.8900643,18.8323908 40.110667,17.7535101 39.7988982,16.7480012 L39.7988982,16.7480012 Z M38.0160394,18.6212949 L31.6339216,26.1295827 C31.4279446,26.3718799 31.1910102,26.586876 30.9296997,26.7687207 C30.3975722,27.1389918 29.774766,27.3630071 29.1292902,27.4168779 L28.2212851,27.4924434 C28.1201248,27.500975 28.0167707,27.5053627 27.9151229,27.5053627 L18.4443252,27.5053627 C17.7315718,27.5053627 17.0112617,27.5470456 16.3036271,27.6291926 L14.0415367,27.8924532 L9.03714895,23.0669852 C9.37792512,22.561915 10.0041439,21.7477574 10.9123928,21.0094091 C12.8044559,19.4710414 14.9546607,19.0205734 17.3037734,19.6706806 C18.5242784,20.0085316 19.8101111,20.1796509 21.1254388,20.1796509 L27.349844,20.1796509 C27.7635043,20.1796509 28.1654641,20.3507703 28.4526131,20.6486447 C28.6624902,20.8665659 28.7955831,21.1337266 28.850429,21.4138066 C28.849454,21.4844968 28.8582293,21.5549435 28.8765113,21.6234399 C28.8972309,21.9902983 28.7872952,22.3642258 28.543048,22.6681942 L28.5189158,22.6984205 C28.2271354,23.06211 27.7920242,23.2710121 27.325468,23.2710121 L21.9066888,23.2710121 C21.4745027,23.2710121 21.1244637,23.6210511 21.1244637,24.0529934 C21.1244637,24.4851794 21.4745027,24.8354622 21.9066888,24.8354622 L27.325468,24.8354622 C28.269062,24.8354622 29.148791,24.4132703 29.7394208,23.6768721 L29.7635531,23.6468896 C30.2159712,23.0833171 30.4402301,22.4012773 30.442424,21.7207001 L35.4560745,16.7594578 C35.7705246,16.4452515 36.1878412,16.262188 36.6317278,16.2441498 L36.9174142,16.232693 C37.5482645,16.2058795 38.117931,16.6093018 38.3046509,17.2116322 C38.4570008,17.7025644 38.3490152,18.2295729 38.0160394,18.6212949 L38.0160394,18.6212949 Z" id="Shape" fill="#324049"></path>
                    <path d="M6.22026134,24.7467336 C5.05216462,24.7467336 4.10198908,25.6971529 4.10198908,26.8650059 C4.10198908,28.0333463 5.05216462,28.9837656 6.22026134,28.9837656 C7.38835807,28.9837656 8.33877729,28.0333463 8.33877729,26.8650059 C8.33877729,25.6971529 7.38835807,24.7467336 6.22026134,24.7467336 Z M6.22026134,27.4190718 C5.91483033,27.4190718 5.66619538,27.1706806 5.66619538,26.8650059 C5.66619538,26.5598187 5.91483033,26.3114275 6.22026134,26.3114275 C6.52544849,26.3114275 6.77408349,26.5598187 6.77408349,26.8650059 C6.77408349,27.1706806 6.52544849,27.4190718 6.22026134,27.4190718 Z" id="Shape" fill="#000000"></path>
                    <path d="M18.5827808,23.3863105 L18.5425604,23.3958171 C18.1220749,23.4945398 17.8607644,23.9157566 17.9599747,24.3362422 C18.0443155,24.6965191 18.3658346,24.9397913 18.7207488,24.9397913 C18.7797387,24.9397913 18.8401911,24.9327223 18.900156,24.9185842 L18.9406202,24.9093214 C19.3611057,24.8105987 19.6219286,24.3893818 19.5232059,23.9688962 C19.4244832,23.5484107 19.0035101,23.2880753 18.5827808,23.3863105 Z" id="Path" fill="#000000"></path>
                    <path d="M6.11958852,31.6653666 L6.07912443,31.6748733 C5.65863888,31.7738397 5.39781591,32.194569 5.4965386,32.6150546 C5.58112324,32.9755753 5.90239863,33.2186037 6.25731282,33.2186037 C6.31679014,33.2186037 6.37675507,33.2120222 6.43720749,33.1978842 L6.47742783,33.1886213 C6.89791339,33.0898986 7.15898009,32.6686817 7.06001367,32.2481962 C6.96129098,31.8274668 6.54007413,31.5668877 6.11958852,31.6653666 Z" id="Path" fill="#000000"></path>
                    <path d="M22.8948908,16.5946763 C27.4600234,16.5946763 31.173947,12.8807527 31.173947,8.31562009 C31.173947,3.75048749 27.4600234,0.0363201872 22.8948908,0.0363201872 C21.0223284,0.0363201872 19.2560452,0.646207114 17.7869052,1.79967825 C17.451248,2.06293878 17.1336291,2.35447544 16.84258,2.66648793 C16.407225,3.13280031 16.025741,3.64932724 15.7090971,4.20095551 C14.9936623,5.44778665 14.6158346,6.8708561 14.6158346,8.31562009 C14.6158346,12.8807527 18.3297582,16.5946763 22.8948908,16.5946763 Z M17.0661076,4.97952418 C17.3230304,4.53173754 17.6323616,4.11271451 17.9860569,3.73415563 C18.2222602,3.48064549 18.4804017,3.2441985 18.7526814,3.03042122 C19.944179,2.09535881 21.3765113,1.60101404 22.8948908,1.60101404 C26.5971139,1.60101404 29.6094969,4.61290952 29.6094969,8.31562009 C29.6094969,12.018087 26.5971139,15.0302262 22.8948908,15.0302262 C19.192424,15.0302262 16.1800409,12.018087 16.1800409,8.31562009 C16.1800409,7.14337947 16.4864469,5.98990833 17.0661076,4.97952418 Z" id="Shape" fill="#75C8B0"></path>
                    <path d="M23.588631,10.9930772 C23.2732059,11.1805285 22.8634458,11.2470749 22.5855597,11.2470749 C22.0580636,11.2470749 21.5956513,10.6254876 21.5956513,9.91712168 C21.5956513,9.48517941 21.2453685,9.13489666 20.8134263,9.13489666 C20.3812402,9.13489666 20.0312012,9.48517941 20.0312012,9.91712168 C20.0312012,11.2719383 20.8565717,12.411759 21.9676287,12.7254778 C21.9929797,13.1347504 22.3318058,13.4591946 22.7474162,13.4591946 C23.1742395,13.4591946 23.5206221,13.1171997 23.5289099,12.6920827 C24.6587363,12.3988397 25.6337754,11.5576248 25.6337754,10.0875098 C25.6337754,8.324883 23.8338534,7.3632508 22.9095164,7.3632508 C22.8978159,7.3632508 21.7494637,7.26111544 21.7494637,6.52666733 C21.7494637,5.39879095 22.8978159,5.36710215 22.9095164,5.36710215 C23.1269501,5.36710215 23.3914294,5.49629485 23.599844,5.70470945 C23.7000293,5.80513847 23.7107547,5.81562009 23.7107547,6.23732449 C23.7107547,6.66926677 24.0612812,7.01784324 24.4929797,7.01784324 C24.924922,7.01784324 25.2754485,6.66634165 25.2754485,6.23415563 C25.2754485,5.73420437 25.2754485,5.16770671 24.7062695,4.59828393 C24.3640308,4.25653279 23.9540269,4.01326053 23.5274474,3.89186821 C23.5035589,3.48113298 23.1642453,3.15498246 22.7474162,3.15498246 C22.3154739,3.15498246 21.9651911,3.50550895 21.9651911,3.93745123 L21.9651911,3.98864081 C21.1105694,4.30625972 20.1850137,5.06532761 20.1850137,6.52666733 C20.1850137,8.31903276 22.0480694,8.92501953 22.9039099,8.9274571 C23.1388943,8.94647039 24.0690815,9.35842434 24.0690815,10.087266 C24.0690815,10.5162832 23.9211194,10.7953881 23.588631,10.9930772 L23.588631,10.9930772 Z" id="Path" fill="#75C8B0"></path>
                </g>
            </g>
        </g>
    </g>
</svg>