<svg width="309px" height="310px" viewBox="0 0 309 310" version="1.1" xmlns="http://www.w3.org/2000/svg" xmlns:xlink="http://www.w3.org/1999/xlink">
    <g id="Web-Design" stroke="none" stroke-width="1" fill="none" fill-rule="evenodd">
        <g id="Error-404-page" transform="translate(-165.000000, -297.000000)">
            <g id="robot" transform="translate(165.000000, 297.000000)">
                <path d="M249.252309,154.564538 L290,195.312229 L289.532013,195.780216 C301.565004,207.892274 309,224.577869 309,243 C309,280.003078 279.003078,310 242,310 C220.10165,310 200.65703,299.494329 188.431264,283.248111 L154.5,249.316847 L120.568736,283.248111 C108.34297,299.494329 88.8983503,310 67,310 C29.9969218,310 0,280.003078 0,243 C0,224.577869 7.4349959,207.892274 19.4679867,195.780216 L19,195.312229 L59.7476913,154.564538 L14.9354621,109.752309 L15.195695,109.492076 C5.70002486,97.9289491 0,83.1301306 0,67 C0,29.9969218 29.9969218,0 67,0 C83.1301306,0 97.9289491,5.70002486 109.492076,15.195695 L109.687771,15 L112.590138,17.902367 C113.801899,19.0280772 114.971923,20.1981019 116.097633,21.4098627 L154.5,59.8122292 L192.902367,21.4098627 C194.028077,20.1981019 195.198101,19.0280772 196.409862,17.902367 L199.312229,15 L199.507924,15.195695 C211.071051,5.70002486 225.869869,0 242,0 C279.003078,0 309,29.9969218 309,67 C309,83.1301306 303.299975,97.9289491 293.804305,109.492076 L294.064538,109.752309 L249.252309,154.564538 Z" id="Combined-Shape" fill="#F6FAFD"></path>
                <g id="searching" transform="translate(31.000000, 33.000000)" fill-rule="nonzero">
                    <path d="M83,162.045477 C83,164.279502 81.1804929,166.090953 78.9365314,166.090953 L23.4035967,166.090953 L23.4035967,211.93888 L29.1979821,211.93888 C31.9905216,211.93888 34.627298,213.155237 36.4322023,215.276834 C38.2375934,217.398432 39.009594,220.18733 38.5505798,222.93019 L35.086799,243.618916 C34.7553157,245.597555 33.0336473,247 31.0836886,247 C30.8617262,247 30.6368433,246.981585 30.4109869,246.944271 C28.1972045,246.57694 26.7018793,244.492657 27.070843,242.288677 L30.5346238,221.599951 C30.6246743,221.063979 30.3832416,220.684534 30.2318594,220.506684 C30.0799904,220.328349 29.7446131,220.029833 29.1979821,220.029833 L9.48276081,220.029833 C8.93661661,220.029833 8.60075254,220.328834 8.44888356,220.506684 C8.29701459,220.684534 8.05655538,221.063979 8.14611913,221.599951 L11.6099,242.288677 C11.9788637,244.492173 10.4835384,246.57694 8.26975605,246.944271 C6.05743398,247.311116 3.96242095,245.822896 3.59345723,243.618916 L0.129676397,222.93019 C-0.329337842,220.187814 0.442662776,217.398432 2.24805388,215.276834 C4.05344499,213.155237 6.68973461,211.93888 9.48227405,211.93888 L15.2766595,211.93888 L15.2766595,162.045477 C15.2766595,159.811451 17.0961667,158 19.3401281,158 L78.9365314,158 C81.1809796,158 83,159.810966 83,162.045477 Z" id="Path" fill="#144856"></path>
                    <path d="M184.956978,148.151281 L170.914437,204.668641 C168.530054,214.266577 159.958983,221 150.125932,221 L97.873587,221 C88.0410168,221 79.4694644,214.266577 77.0846005,204.668641 L63.0420596,148.151281 C61.3517181,141.347154 66.4665413,134.756109 73.4367935,134.756109 L174.562725,134.756109 C181.533459,134.756109 186.647801,141.347154 184.956978,148.151281 Z M123.999759,0 L123.999759,0 C82.5786917,0 49,33.7862465 49,75.4633438 L49,86.2438906 C49,98.151356 58.5938432,107.804984 70.4286402,107.804984 L177.57136,107.804984 C189.405676,107.804984 199,98.1518403 199,86.2438906 L199,75.4633438 C199,33.7862465 165.421308,0 123.999759,0 Z" id="Shape" fill="#256277"></path>
                    <path d="M166,135 L156.390317,173.12975 C152.558134,188.334212 138.785848,199 122.986124,199 L122.986124,199 C107.1864,199 93.4141149,188.333733 89.5819319,173.12975 L86.652604,161.508022 C83.2595303,148.043417 93.5257038,135 107.517785,135 L166,135 L166,135 Z" id="Path" fill="#84A7B7"></path>
                    <path d="M239.474025,168.948246 C238.758606,170.216621 237.42274,171 235.975511,171 L134.024472,171 C131.802046,171 130,169.183454 130,166.943145 C130,164.702835 131.802046,162.886289 134.024472,162.886289 L228.89701,162.886289 L167.041243,58.1326263 C165.903997,56.2077097 166.530712,53.717613 168.441227,52.571702 C170.351261,51.4248191 172.820998,52.0580345 173.957762,53.9829512 L239.434011,164.868064 C240.174017,166.121374 240.189443,167.679871 239.474025,168.948246 Z" id="Path" fill="#144856"></path>
                    <path d="M95,188.218766 L95,188.781234 C95,191.110955 93.2089123,193 91,193 C88.7910877,193 87,191.110955 87,188.781234 L87,188.218766 C87,185.889045 88.7910877,184 91,184 C93.2093915,184 95,185.889045 95,188.218766 Z" id="Path" fill="#FC8059"></path>
                    <path d="M112,188.218766 L112,188.781234 C112,191.110955 110.208912,193 108,193 C105.791088,193 104,191.110955 104,188.781234 L104,188.218766 C104,185.889045 105.791088,184 108,184 C110.208912,184 112,185.889045 112,188.218766 Z" id="Path" fill="#FFD880"></path>
                    <path d="M155,188.218766 L155,188.781234 C155,191.110955 153.208912,193 151,193 C148.791088,193 147,191.110955 147,188.781234 L147,188.218766 C147,185.889045 148.791088,184 151,184 C153.209391,184 155,185.889045 155,188.218766 Z" id="Path" fill="#B5E5BC"></path>
                    <path d="M101.600097,172 L85.399903,172 C82.4175846,172 80,169.649581 80,166.750118 L80,156.249882 C80,153.350419 82.4175846,151 85.399903,151 L101.600097,151 C104.582415,151 107,153.350419 107,156.249882 L107,166.750118 C107,169.649581 104.582415,172 101.600097,172 Z" id="Path" fill="#CFDFE2"></path>
                    <path d="M247,161.5 C247,170.61253 239.777237,178 230.866796,178 C221.956354,178 214.733591,170.61253 214.733591,161.5 C214.733591,152.38747 221.956354,145 230.866796,145 C239.777237,145 247,152.38747 247,161.5 Z M21.1332045,145 C12.2227628,145 5,152.38747 5,161.5 C5,170.61253 12.2227628,178 21.1332045,178 C30.0436461,178 37.266409,170.61253 37.266409,161.5 C37.266409,152.38747 30.0436461,145 21.1332045,145 Z" id="Shape" fill="#256277"></path>
                    <path d="M32.4884843,161.5 C32.4884843,167.298796 27.6784076,172 21.7442422,172 C15.8100767,172 11,167.298796 11,161.5 C11,155.700732 15.8100767,151 21.7442422,151 C27.6784076,151 32.4884843,155.700732 32.4884843,161.5 Z M231.255758,151 C225.321592,151 220.511516,155.700732 220.511516,161.5 C220.511516,167.298796 225.321592,172 231.255758,172 C237.189923,172 242,167.298796 242,161.5 C242,155.700732 237.189923,151 231.255758,151 Z" id="Shape" fill="#84A7B7"></path>
                    <path d="M75,57 C75,42.0881909 87.0886761,30 102,30 C116.911324,30 129,42.0886761 129,57 C129,71.9113239 116.911324,84 102,84 C87.0886761,84 75,71.9113239 75,57 Z" id="Path" fill="#144856"></path>
                    <path d="M86,56.5 C86,47.3869755 93.3869755,40 102.5,40 C111.613024,40 119,47.3869755 119,56.5 C119,65.6130245 111.613024,73 102.5,73 C93.3869755,73 86,65.6130245 86,56.5 Z" id="Path" fill="#CFDFE2"></path>
                    <path d="M102,56 C102,51.5821754 105.581696,48 110,48 C114.418304,48 118,51.5816962 118,56 C118,60.4183038 114.418304,64 110,64 C105.581696,64 102,60.4178246 102,56 Z" id="Path" fill="#FFFFFF"></path>
                    <path d="M208.4516,16.5485551 C230.516133,38.6130535 230.516133,74.3871278 208.4516,96.4516262 C186.387066,118.516125 150.612934,118.516125 128.5484,96.4516262 C106.483867,74.3871278 106.483867,38.6130535 128.5484,16.5485551 C150.612934,-5.51594331 186.387066,-5.51642675 208.4516,16.5485551 Z" id="Path" fill="#84A7B7"></path>
                    <path d="M207,56 C207,76.9867416 189.986742,94 169,94 C148.013258,94 131,76.9867416 131,56 C131,35.0132584 148.013258,18 169,18 C189.986742,18 207,35.0127707 207,56 Z" id="Path" fill="#C3E4ED"></path>
                    <path d="M205,43.8408453 L156.840845,92 C149.79734,89.4881939 143.718315,84.9453702 139.317696,79.0690111 L192.069011,26.3176963 C197.94537,30.7178312 202.488194,36.7973404 205,43.8408453 Z M182.159155,21 L134,69.1591547 C134.630249,70.9275281 135.387709,72.6359239 136.264156,74.2707987 L187.270799,23.2641565 C185.63544,22.3877088 183.927528,21.6302491 182.159155,21 Z" id="Shape" fill="#DCF3F9"></path>
                    <path d="M169.5,28 C175.299268,28 180,32.7007322 180,38.5 C180,44.2992678 175.299268,49 169.5,49 C163.700732,49 159,44.2992678 159,38.5 C159,32.7007322 163.701676,28 169.5,28 Z" id="Path" fill="#FFFFFF"></path>
                </g>
            </g>
        </g>
    </g>
</svg>