<svg width="17px" height="16px" viewBox="0 0 13 12" version="1.1" xmlns="http://www.w3.org/2000/svg" xmlns:xlink="http://www.w3.org/1999/xlink">
    <g id="Web-Design" stroke="none" stroke-width="1" fill="none" fill-rule="evenodd" opacity="0.400000006">
        <g id="Select-Tickets-New" transform="translate(-955.000000, -280.000000)" fill="#000000" fill-rule="nonzero">
            <g id="Summary" transform="translate(914.000000, 192.000000)">
                <g id="Ticket-Type">
                    <g id="calendar" transform="translate(41.000000, 88.000000)">
                        <path d="M0.5,11.9009174 L12.4888889,11.9009174 C12.7444444,11.9009174 12.9444444,11.7027523 12.9444444,11.4495413 L12.9444444,1.37614679 C12.9444444,1.12293578 12.7444444,0.924770642 12.4888889,0.924770642 L10.2333333,0.924770642 L10.2333333,0.539449541 C10.2333333,0.286238532 10.0333333,0.0880733945 9.77777778,0.0880733945 C9.52222222,0.0880733945 9.32222222,0.286238532 9.32222222,0.539449541 L9.32222222,0.924770642 L3.74444444,0.924770642 L3.74444444,0.539449541 C3.74444444,0.286238532 3.54444444,0.0880733945 3.28888889,0.0880733945 C3.03333333,0.0880733945 2.83333333,0.286238532 2.83333333,0.539449541 L2.83333333,0.924770642 L0.5,0.924770642 C0.244444444,0.924770642 0.0444444444,1.12293578 0.0444444444,1.37614679 L0.0444444444,11.4605505 C0.0444444444,11.7027523 0.255555556,11.9009174 0.5,11.9009174 Z M0.955555556,1.82752294 L2.83333333,1.82752294 L2.83333333,2.06972477 C2.83333333,2.32293578 3.03333333,2.52110092 3.28888889,2.52110092 C3.54444444,2.52110092 3.74444444,2.32293578 3.74444444,2.06972477 L3.74444444,1.82752294 L9.32222222,1.82752294 L9.32222222,2.06972477 C9.32222222,2.32293578 9.52222222,2.52110092 9.77777778,2.52110092 C10.0333333,2.52110092 10.2333333,2.32293578 10.2333333,2.06972477 L10.2333333,1.82752294 L12.0444444,1.82752294 L12.0444444,2.99449541 L0.955555556,2.99449541 L0.955555556,1.82752294 L0.955555556,1.82752294 Z M0.955555556,3.89724771 L12.0333333,3.89724771 L12.0333333,11.0091743 L0.955555556,11.0091743 L0.955555556,3.89724771 Z" id="Shape"></path>
                        <path d="M9.77777778,5.96697248 L3.22222222,5.96697248 C2.96666667,5.96697248 2.76666667,6.16513761 2.76666667,6.41834862 C2.76666667,6.67155963 2.96666667,6.86972477 3.22222222,6.86972477 L9.77777778,6.86972477 C10.0333333,6.86972477 10.2333333,6.67155963 10.2333333,6.41834862 C10.2333333,6.16513761 10.0333333,5.96697248 9.77777778,5.96697248 Z" id="Path"></path>
                        <path d="M6.5,8.14678899 L3.22222222,8.14678899 C2.96666667,8.14678899 2.76666667,8.34495413 2.76666667,8.59816514 C2.76666667,8.85137615 2.96666667,9.04954128 3.22222222,9.04954128 L6.5,9.04954128 C6.75555556,9.04954128 6.95555556,8.85137615 6.95555556,8.59816514 C6.95555556,8.34495413 6.75555556,8.14678899 6.5,8.14678899 Z" id="Path"></path>
                    </g>
                </g>
            </g>
        </g>
    </g>
</svg>