<svg width="20px" height="20px" viewBox="0 0 20 20" version="1.1" xmlns="http://www.w3.org/2000/svg" xmlns:xlink="http://www.w3.org/1999/xlink">    <g id="Web-Design" stroke="none" stroke-width="1" fill="none" fill-rule="evenodd">        <g id="Select-Tickets-New" transform="translate(-165.000000, -351.000000)" fill="#75C8B0" fill-rule="nonzero">            <g id="Description" transform="translate(165.000000, 192.000000)">                <g id="dining" transform="translate(0.000000, 159.000000)">                    <path d="M19.4797656,16.9717739 L11.6373828,9.14463938 L2.47488281,0 L1.75882812,0 L1.61261719,0.37079922 C1.22671875,1.34951267 1.06183594,2.35052632 1.13585937,3.26549708 C1.22023437,4.30846004 1.61722656,5.211423 2.28398437,5.87688109 L9.43671875,13.0156725 L10.3801562,12.0740741 L16.9928516,19.4539181 C17.6506641,20.1104483 18.7828906,20.1494347 19.4797656,19.4539181 C20.1654688,18.7695517 20.1654688,17.6561014 19.4797656,16.9717739 Z" id="Path"></path>                    <path d="M6.1221875,11.3622612 L0.520195313,16.9533333 C-0.165429687,17.6376218 -0.165429687,18.7511111 0.520195313,19.4353996 C1.17152344,20.0854581 2.29828125,20.142846 3.00710937,19.4353996 L8.60914063,13.8442885 L6.1221875,11.3622612 Z" id="Path"></path>                    <path d="M19.0845067,3.59400339 L15.6537412,7.02472682 L14.7587166,6.12974449 L18.1894822,2.69897889 L17.2944999,1.80399656 L13.8637765,5.23471999 L12.9687942,4.33973766 L16.3995598,0.909014231 L15.5046196,0.0140740741 L11.029708,4.48898572 C10.4822682,5.03642544 10.1553901,5.76330865 10.1091692,6.53582237 C10.0974874,6.73154441 10.0531221,6.92406134 9.97953125,7.10717383 L12.8864315,10.0140741 C13.069544,9.94039892 13.2621031,9.89607574 13.457783,9.88439399 C14.2302967,9.83829958 14.9571799,9.51133709 15.5046196,8.96389737 L19.9795313,4.4890279 L19.0845067,3.59400339 Z" id="Path"></path>                </g>            </g>        </g>    </g></svg>