<svg width="18px" height="16px" viewBox="0 0 13 13" version="1.1" xmlns="http://www.w3.org/2000/svg" xmlns:xlink="http://www.w3.org/1999/xlink">    <g id="Web-Design" stroke="none" stroke-width="1" fill="none" fill-rule="evenodd" opacity="0.400000006">        <g id="Select-Tickets-New" transform="translate(-955.000000, -309.000000)" fill="#000000" fill-rule="nonzero">            <g id="Summary" transform="translate(914.000000, 192.000000)">                <g id="Ticket-Type">                    <g id="guests" transform="translate(41.000000, 117.000000)">                        <path d="M11.0962109,8.40378906 C10.3882441,7.69584766 9.54558008,7.17175977 8.62618555,6.85450391 C9.61088477,6.17629492 10.2578125,5.04125781 10.2578125,3.7578125 C10.2578125,1.68575977 8.57205273,0 6.5,0 C4.42794727,0 2.7421875,1.68575977 2.7421875,3.7578125 C2.7421875,5.04125781 3.38911523,6.17629492 4.37383984,6.85450391 C3.45444531,7.17175977 2.61178125,7.69584766 1.90381445,8.40378906 C0.676126953,9.63150195 0,11.2637891 0,13 L1.015625,13 C1.015625,9.97590039 3.47590039,7.515625 6.5,7.515625 C9.52409961,7.515625 11.984375,9.97590039 11.984375,13 L13,13 C13,11.2637891 12.323873,9.63150195 11.0962109,8.40378906 Z M6.5,6.5 C4.98796289,6.5 3.7578125,5.269875 3.7578125,3.7578125 C3.7578125,2.24575 4.98796289,1.015625 6.5,1.015625 C8.01203711,1.015625 9.2421875,2.24575 9.2421875,3.7578125 C9.2421875,5.269875 8.01203711,6.5 6.5,6.5 Z" id="Shape"></path>                    </g>                </g>            </g>        </g>    </g></svg>