<svg width="22px" height="24px" viewBox="0 0 22 24" version="1.1" xmlns="http://www.w3.org/2000/svg" xmlns:xlink="http://www.w3.org/1999/xlink">    <g id="Web-Design" stroke="none" stroke-width="1" fill="none" fill-rule="evenodd">        <g id="Select-Tickets-New" transform="translate(-557.000000, -347.000000)" fill="#75C8B0" fill-rule="nonzero">            <g id="Description" transform="translate(165.000000, 192.000000)">                <g id="themepark" transform="translate(392.000000, 155.000000)">                    <path d="M12.4347826,10.78125 C12.4347826,10.0057983 11.7911855,9.375 11,9.375 C10.2088145,9.375 9.56521739,10.0057983 9.56521739,10.78125 C9.56521739,11.5567017 10.2088145,12.1875 11,12.1875 C11.7911855,12.1875 12.4347826,11.5567017 12.4347826,10.78125 Z M11,11.25 C10.7362092,11.25 10.5217391,11.0397949 10.5217391,10.78125 C10.5217391,10.5227051 10.7362092,10.3125 11,10.3125 C11.2637908,10.3125 11.4782609,10.5227051 11.4782609,10.78125 C11.4782609,11.0397949 11.2637908,11.25 11,11.25 Z" id="Shape"></path>                    <path d="M-1.13686838e-13,10.78125 C-1.13686838e-13,11.8150635 0.858254052,12.65625 1.91304348,12.65625 C2.324983,12.65625 2.7064708,12.5275268 3.01902174,12.3098145 C3.22601902,13.3562622 3.64543137,14.3463135 4.25596127,15.2301636 C3.86625341,15.2938843 3.50699728,15.473877 3.2220958,15.7532959 C2.47425272,16.4857178 2.47387905,17.6720581 3.22190899,18.40448 C3.96881793,19.1370849 5.17960257,19.1380005 5.92707203,18.4048462 C6.21253399,18.1252441 6.39617866,17.7727661 6.46100543,17.3902588 C6.83240489,17.6361694 7.22379417,17.8511353 7.63386551,18.0342407 L5.69560123,23.0625 L3.34782609,23.0625 C3.08366166,23.0625 2.86956522,23.2723388 2.86956522,23.53125 C2.86956522,23.7901612 3.08366166,24 3.34782609,24 L8.84782609,24 C9.11180366,24 9.32608696,23.7901612 9.32608696,23.53125 C9.32608696,23.2723388 9.11180366,23.0625 8.84782609,23.0625 L6.71807065,23.0625 L8.52612095,18.3722534 C8.82671537,18.4667358 9.13198029,18.5436401 9.44116848,18.6027832 C9.21847826,18.9093018 9.08695652,19.2835693 9.08695652,19.6875 C9.08695652,20.7213135 9.94521057,21.5625 11,21.5625 C12.0547894,21.5625 12.9130435,20.7213135 12.9130435,19.6875 C12.9130435,19.2835693 12.7815217,18.9093018 12.5588315,18.6027832 C12.8680197,18.5436401 13.1732846,18.4667358 13.4738791,18.3722534 L15.2819293,23.0625 L13.1521739,23.0625 C12.8881963,23.0625 12.673913,23.2723388 12.673913,23.53125 C12.673913,23.7901612 12.8881963,24 13.1521739,24 L18.6521739,24 C18.9163383,24 19.1304348,23.7901612 19.1304348,23.53125 C19.1304348,23.2723388 18.9163383,23.0625 18.6521739,23.0625 L16.3043988,23.0625 L14.3661345,18.0340576 C14.7762058,17.8511353 15.1677819,17.6359863 15.5389946,17.3902588 C15.6040082,17.7727661 15.787466,18.1252441 16.0727412,18.40448 C16.8196501,19.1370849 18.0304348,19.1380005 18.7779042,18.4046631 C19.5259341,17.6722412 19.5261209,16.4859009 18.778091,15.7531128 C18.4930027,15.4736939 18.1337466,15.2938843 17.7440387,15.2301636 C18.3547554,14.3463135 18.7741678,13.3562622 18.9811651,12.3096314 C19.2935292,12.5275268 19.675017,12.65625 20.0869565,12.65625 C21.1417459,12.65625 22,11.8150635 22,10.78125 C22,9.7474365 21.1417459,8.90625 20.0869565,8.90625 C19.675017,8.90625 19.2935292,9.03497316 18.9809783,9.25268555 C18.773981,8.20623778 18.3545686,7.2161865 17.7440387,6.33233644 C18.1339334,6.26861573 18.4931895,6.08862305 18.7779042,5.80938722 C19.5255605,5.07714844 19.5263078,3.890625 18.778091,3.15802003 C18.0308084,2.42504883 16.8203974,2.42468259 16.072928,3.15783694 C15.7878397,3.43707277 15.604195,3.78918459 15.5391814,4.17132567 C14.6373981,3.57275391 13.6274457,3.16168214 12.5595788,2.95880128 C12.7817085,2.65264894 12.9130435,2.27874755 12.9130435,1.875 C12.9130435,0.8411865 12.0547894,0 11,0 C9.94521057,0 9.08695652,0.8411865 9.08695652,1.875 C9.08695652,2.27874755 9.21829145,2.65264894 9.4404212,2.95898438 C8.37274116,3.16186523 7.36260188,3.57275391 6.46081863,4.17132567 C6.39580504,3.78918459 6.21234713,3.43725586 5.92725884,3.15783694 C5.18016304,2.42541506 3.96956522,2.42468259 3.2220958,3.15783694 C2.47443953,3.88989258 2.47369224,5.07659911 3.22190899,5.80920413 C3.50681047,6.08862305 3.8660666,6.26861573 4.25596127,6.33233644 C3.64524457,7.2161865 3.22601902,8.20623778 3.01902174,9.25286864 C2.7064708,9.03497316 2.324983,8.90625 1.91304348,8.90625 C0.858254052,8.90625 -1.13686838e-13,9.7474365 -1.13686838e-13,10.78125 L-1.13686838e-13,10.78125 Z M13.6805027,12.7456055 C14.0179008,12.3054199 14.2344259,11.793457 14.3136379,11.2494507 L18.1578464,11.2494507 C18.0543478,12.793396 17.4410156,14.2423096 16.396875,15.407959 L13.6805027,12.7456055 Z M11,13.125 C9.68366166,13.125 8.60869565,12.0765381 8.60869565,10.78125 C8.60869565,9.48760988 9.681233,8.4375 11,8.4375 C12.3198879,8.4375 13.3913043,9.48870848 13.3913043,10.78125 C13.3913043,12.0774536 12.3150306,13.125 11,13.125 Z M5.603125,15.407959 C4.55898439,14.2424927 3.94565217,12.7939453 3.84215356,11.25 L7.6863621,11.25 C7.76557406,11.7936401 7.98209921,12.3052368 8.31949728,12.7454224 L5.603125,15.407959 Z M14.3136379,10.3125 C14.2344259,9.76867678 14.0179008,9.25708008 13.6805027,8.81707763 L16.396875,6.15454102 C17.4410156,7.32000731 18.0543478,8.76855469 18.1578464,10.3125 L14.3136379,10.3125 Z M13.004212,8.15405273 C12.5550951,7.82336428 12.0331182,7.61114503 11.4782609,7.53350831 L11.4782609,3.76574709 C13.0535326,3.8671875 14.531284,4.46832277 15.7205842,5.49169922 L13.004212,8.15405273 Z M10.5217391,7.53350831 C9.96688182,7.61114503 9.4450917,7.82336428 8.99597485,8.15405273 L6.27941576,5.49169922 C7.4685292,4.46832277 8.94646739,3.8671875 10.5217391,3.76574709 L10.5217391,7.53350831 Z M8.31949728,8.81689453 C7.98209921,9.25708008 7.76557406,9.76867678 7.6863621,10.3125 L3.84215356,10.3125 C3.94565217,8.76855469 4.55898439,7.32019041 5.603125,6.15454102 L8.31949728,8.81689453 Z M5.25059442,17.7418213 C4.88050272,18.1049194 4.27539061,18.1115112 3.8981997,17.7414551 C3.52437159,17.3754272 3.52437159,16.7823487 3.8981997,16.4163208 C3.89838656,16.4163208 3.89838656,16.4161377 3.89857337,16.4161377 C4.2671705,16.0543213 4.87265623,16.045166 5.25096808,16.4163208 C5.6238621,16.7814331 5.62573029,17.3743286 5.25059442,17.7418213 L5.25059442,17.7418213 Z M6.27960257,16.0708008 L8.99616166,13.408081 C9.10414402,13.4875488 9.21661008,13.5600586 9.33318617,13.6257935 L7.97275815,17.1547852 C7.35811818,16.8740845 6.79130435,16.5111694 6.27960257,16.0708008 Z M10.221892,13.9729614 C10.3209069,13.9962158 10.420856,14.0150757 10.5217391,14.0291748 L10.5217391,17.796936 C9.95660667,17.760498 9.40212297,17.6590576 8.86463992,17.4942627 L10.221892,13.9729614 Z M11.9565217,19.6875 C11.9565217,20.2044067 11.5273947,20.625 11,20.625 C10.4726053,20.625 10.0434783,20.2044067 10.0434783,19.6875 C10.0434783,19.1705933 10.4726053,18.75 11,18.75 C11.5273947,18.75 11.9565217,19.1705933 11.9565217,19.6875 Z M11.4782609,17.796936 L11.4782609,14.0291748 C11.579144,14.0150757 11.6790931,13.9962158 11.778108,13.9729614 L13.1355469,17.4942627 C12.5980638,17.6592407 12.0435801,17.760498 11.4782609,17.796936 L11.4782609,17.796936 Z M12.6668138,13.6257935 C12.7833899,13.5600586 12.895856,13.4875488 13.0038383,13.408081 L15.7205842,16.0708008 C15.2088825,16.5109863 14.6420686,16.8739013 14.0272418,17.1547852 L12.6668138,13.6257935 Z M18.1018003,16.4163208 C18.4746943,16.7814331 18.4767493,17.3743286 18.1014266,17.7418213 C17.7320822,18.104187 17.1267833,18.1120605 16.7490319,17.7414551 C16.3761379,17.3763428 16.3740829,16.7834473 16.7494056,16.4159546 C17.1228601,16.0495605 17.7279721,16.0495605 18.1014266,16.4159546 C18.1016134,16.4161377 18.1016134,16.4161377 18.1018003,16.4163208 L18.1018003,16.4163208 Z M20.0869565,9.84375 C20.6143512,9.84375 21.0434783,10.2643433 21.0434783,10.78125 C21.0434783,11.2981568 20.6143512,11.71875 20.0869565,11.71875 C19.5595618,11.71875 19.1304348,11.2981568 19.1304348,10.78125 C19.1304348,10.2643433 19.5595618,9.84375 20.0869565,9.84375 Z M16.7490319,3.82104492 C16.7492188,3.82086183 16.7492188,3.82086183 16.7494056,3.82067869 C17.1194973,3.45758058 17.7246094,3.45098878 18.1018003,3.82104492 C18.4709579,4.18249509 18.4802989,4.77557372 18.1014266,5.14654542 C17.7328295,5.50817869 17.1273438,5.51733398 16.7490319,5.14617919 C16.3752038,4.77996825 16.3752038,4.18707277 16.7490319,3.82104492 Z M10.0434783,1.875 C10.0434783,1.35809325 10.4726053,0.9375 11,0.9375 C11.5273947,0.9375 11.9565217,1.35809325 11.9565217,1.875 C11.9565217,2.39190675 11.5273947,2.8125 11,2.8125 C10.4726053,2.8125 10.0434783,2.39190675 10.0434783,1.875 Z M3.89857337,3.82067869 C4.27202787,3.45428466 4.87713992,3.45428466 5.25059442,3.82067869 C5.25078123,3.82086183 5.25078123,3.82086183 5.25096808,3.82104492 C5.6238621,4.18615725 5.6259171,4.77905273 5.25059442,5.14654542 C4.88125,5.50891116 4.2761379,5.51678466 3.8981997,5.14617919 C3.52530573,4.78106691 3.52325069,4.18817137 3.89857337,3.82067869 Z M1.91304348,9.84375 C2.44043819,9.84375 2.86956522,10.2643433 2.86956522,10.78125 C2.86956522,11.2981568 2.44043819,11.71875 1.91304348,11.71875 C1.38564877,11.71875 0.956521739,11.2981568 0.956521739,10.78125 C0.956521739,10.2643433 1.38564877,9.84375 1.91304348,9.84375 Z" id="Shape"></path>                    <path d="M11.4782609,23.53125 C11.4782609,23.7901612 11.2641644,24 11,24 C10.7358356,24 10.5217391,23.7901612 10.5217391,23.53125 C10.5217391,23.2723388 10.7358356,23.0625 11,23.0625 C11.2641644,23.0625 11.4782609,23.2723388 11.4782609,23.53125 Z" id="Path"></path>                </g>            </g>        </g>    </g></svg>