<svg width="44px" height="40px" viewBox="0 0 44 40" version="1.1" xmlns="http://www.w3.org/2000/svg" xmlns:xlink="http://www.w3.org/1999/xlink">
    <g id="Web-Design" stroke="none" stroke-width="1" fill="none" fill-rule="evenodd">
        <g id="Your-Details" transform="translate(-380.000000, -259.000000)">
            <g id="Mobile-Ticket" transform="translate(165.000000, 259.000000)">
                <g id="ticket-confirmation" transform="translate(215.000000, 0.000000)">
                    <g id="clock-2" fill="#324049" fill-rule="nonzero">
                        <path d="M20,0 C8.95431145,0 0,8.95431145 0,20 C0,31.0456885 8.95431145,40 20,40 C31.0456885,40 40,31.0456885 40,20 C39.985843,8.96021021 31.0397898,0.0141570142 20,0 Z M20.8580009,38.2410982 L20.8580009,34.7232947 C20.8580009,34.2494637 20.473831,33.8652939 20,33.8652939 C19.526169,33.8652939 19.1419991,34.2494637 19.1419991,34.7232947 L19.1419991,38.2410982 C9.73391248,37.7919348 2.20806521,30.2660875 1.75890176,20.8580009 L5.27670528,20.8580009 C5.75053625,20.8580009 6.13470613,20.473831 6.13470613,20 C6.13470613,19.526169 5.75053625,19.1419991 5.27670528,19.1419991 L1.75890176,19.1419991 C2.20806521,9.73391248 9.73391248,2.20806521 19.1419991,1.75890176 L19.1419991,5.27670528 C19.1419991,5.75053625 19.526169,6.13470613 20,6.13470613 C20.473831,6.13470613 20.8580009,5.75053625 20.8580009,5.27670528 L20.8580009,1.75890176 C30.2660875,2.20806521 37.7919348,9.73391248 38.2410982,19.1419991 L34.7232947,19.1419991 C34.2494637,19.1419991 33.8652939,19.526169 33.8652939,20 C33.8652939,20.473831 34.2494637,20.8580009 34.7232947,20.8580009 L34.7318747,20.8580009 L38.2496782,20.8580009 C37.8001931,30.2691978 30.2694123,37.7962248 20.8580009,38.2410982 Z" id="Shape"></path>
                        <path d="M28.7586782,27.563961 L20.6898144,19.3646312 L20.6898144,10.8444212 C20.6898144,10.3780896 20.3115072,10 19.8449072,10 C19.3783072,10 19,10.3780896 19,10.8444212 L19,19.7108438 C19.0009505,19.9323989 19.0889265,20.1446652 19.2450231,20.3019387 L27.5504609,28.7461507 C27.8771232,29.0795916 28.4123719,29.0852914 28.7460046,28.7588171 C29.0796374,28.4323427 29.0853405,27.8974019 28.7586782,27.563961 Z" id="Path"></path>
                    </g>
                    <circle id="Oval" fill="#75C8B0" opacity="0.994280134" cx="34.5" cy="12.5" r="9.5"></circle>
                    <polyline id="Path-2" stroke="#FFFFFF" stroke-width="2" stroke-linecap="round" stroke-linejoin="round" points="31 12.375 33.3333333 15 38 9"></polyline>
                </g>
            </g>
        </g>
    </g>
</svg>