
<svg width="20px" height="18px" viewBox="0 0 20 17" version="1.1" xmlns="http://www.w3.org/2000/svg" xmlns:xlink="http://www.w3.org/1999/xlink">
    <g id="Web-Design" stroke="none" stroke-width="1" fill="none" fill-rule="evenodd">
        <g id="Select-Tickets---Universal-Studios" transform="translate(-378.000000, -352.000000)" fill="#75C8B0" fill-rule="nonzero">
            <g id="Description" transform="translate(165.000000, 192.000000)">
                <g id="vip_green" transform="translate(213.000000, 160.000000)">
                    <path d="M8.67813725,0.502320261 L9.09552288,0.0166666667 L4.53300654,0.0166666667 L0,5.24330065 L4.60055556,5.24330065 L8.67813725,0.502320261 Z M5.6927451,5.24366013 L14.3097386,5.24366013 L11.9671242,2.51888889 L10.0017647,0.233169935 L7.03166667,3.68643791 L5.6927451,5.24366013 Z M0.055130719,6.07166667 L8.62199346,15.0865033 L4.52519608,6.07166667 L0.055130719,6.07166667 Z M14.5692484,6.07098039 L13.8226471,6.07098039 L10.6836601,6.07166667 L5.43320261,6.07166667 L9.97437908,16.0634967 L10.0035621,16.1271242 L14.3303268,6.59856209 L14.5692484,6.07098039 Z M11.3908497,15.0736928 L19.944183,6.07202614 L15.4780065,6.07202614 L11.3908497,15.0736928 Z M20,5.24330065 L15.4655556,0.0166339869 L10.9062418,0.0166339869 L15.4008497,5.24330065 L20,5.24330065 Z" id="Shape"></path>
                </g>
            </g>
        </g>
    </g>
</svg>